<svg xmlns="http://www.w3.org/2000/svg" viewBox="0 0 128 128" role="img" aria-label="FoundationOS mark">
  <defs>
    <linearGradient id="bg" x1="0" y1="0" x2="1" y2="1">
      <stop offset="0%" stop-color="#11171d"/>
      <stop offset="100%" stop-color="#1e2a22"/>
    </linearGradient>
    <linearGradient id="accent" x1="0" y1="0" x2="1" y2="1">
      <stop offset="0%" stop-color="#d7e4c3"/>
      <stop offset="100%" stop-color="#86b071"/>
    </linearGradient>
  </defs>
  <rect x="8" y="8" width="112" height="112" rx="28" fill="url(#bg)"/>
  <path d="M35 29h50v13H49v14h31v13H49v30H35V29Z" fill="#f3eee1"/>
  <path d="M90 30c-13 0-23 4-30 13l9 9c6-6 12-9 20-9 8 0 13 4 13 10 0 5-3 8-10 12L76 74c-11 6-19 15-21 25h50V86H76c2-2 5-4 9-6l14-8c11-6 17-14 17-26 0-10-8-16-26-16Z" fill="url(#accent)"/>
  <path d="M19 99h90" stroke="#d7e4c3" stroke-opacity=".42" stroke-width="3" stroke-linecap="round"/>
</svg>
